<mxfile host="Electron" modified="2024-05-04T15:58:08.066Z" agent="Mozilla/5.0 (Windows NT 10.0; Win64; x64) AppleWebKit/537.36 (KHTML, like Gecko) draw.io/24.2.5 Chrome/120.0.6099.109 Electron/28.1.0 Safari/537.36" etag="ZIMNBK7ar_F7WjP70OX8" version="24.2.5" type="device">
  <diagram name="Page-1" id="GlS1hZ22YgAV31uIHT3M">
    <mxGraphModel dx="2924" dy="1204" grid="1" gridSize="10" guides="1" tooltips="1" connect="1" arrows="1" fold="1" page="1" pageScale="1" pageWidth="850" pageHeight="1100" math="0" shadow="0">
      <root>
        <mxCell id="0" />
        <mxCell id="1" parent="0" />
        <mxCell id="F5Thm_x5qzxDe0iKAtx1-1" value="&lt;font style=&quot;font-size: 18px;&quot;&gt;Sales-Office&lt;/font&gt;" style="text;html=1;align=center;verticalAlign=middle;whiteSpace=wrap;rounded=0;" vertex="1" parent="1">
          <mxGeometry x="-570" y="270" width="60" height="30" as="geometry" />
        </mxCell>
        <mxCell id="F5Thm_x5qzxDe0iKAtx1-2" value="&lt;u&gt;number&lt;/u&gt;" style="rounded=0;whiteSpace=wrap;html=1;" vertex="1" parent="1">
          <mxGeometry x="-570" y="320" width="120" height="60" as="geometry" />
        </mxCell>
        <mxCell id="F5Thm_x5qzxDe0iKAtx1-3" value="location" style="rounded=0;whiteSpace=wrap;html=1;" vertex="1" parent="1">
          <mxGeometry x="-450" y="320" width="120" height="60" as="geometry" />
        </mxCell>
        <mxCell id="F5Thm_x5qzxDe0iKAtx1-4" value="&lt;font style=&quot;font-size: 18px;&quot;&gt;Employee&lt;/font&gt;" style="text;html=1;align=center;verticalAlign=middle;whiteSpace=wrap;rounded=0;" vertex="1" parent="1">
          <mxGeometry x="-90" y="270" width="60" height="30" as="geometry" />
        </mxCell>
        <mxCell id="F5Thm_x5qzxDe0iKAtx1-5" value="&lt;u&gt;id&lt;/u&gt;" style="rounded=0;whiteSpace=wrap;html=1;" vertex="1" parent="1">
          <mxGeometry x="-90" y="320" width="120" height="60" as="geometry" />
        </mxCell>
        <mxCell id="F5Thm_x5qzxDe0iKAtx1-6" value="name" style="rounded=0;whiteSpace=wrap;html=1;" vertex="1" parent="1">
          <mxGeometry x="30" y="320" width="120" height="60" as="geometry" />
        </mxCell>
        <mxCell id="F5Thm_x5qzxDe0iKAtx1-7" value="&lt;font style=&quot;font-size: 18px;&quot;&gt;Owner&lt;/font&gt;" style="text;html=1;align=center;verticalAlign=middle;whiteSpace=wrap;rounded=0;" vertex="1" parent="1">
          <mxGeometry x="350" y="270" width="60" height="30" as="geometry" />
        </mxCell>
        <mxCell id="F5Thm_x5qzxDe0iKAtx1-8" value="&lt;u&gt;id&lt;/u&gt;" style="rounded=0;whiteSpace=wrap;html=1;" vertex="1" parent="1">
          <mxGeometry x="350" y="320" width="120" height="60" as="geometry" />
        </mxCell>
        <mxCell id="F5Thm_x5qzxDe0iKAtx1-9" value="name" style="rounded=0;whiteSpace=wrap;html=1;" vertex="1" parent="1">
          <mxGeometry x="470" y="320" width="120" height="60" as="geometry" />
        </mxCell>
        <mxCell id="F5Thm_x5qzxDe0iKAtx1-10" value="&lt;font style=&quot;font-size: 18px;&quot;&gt;Property&lt;/font&gt;" style="text;html=1;align=center;verticalAlign=middle;whiteSpace=wrap;rounded=0;" vertex="1" parent="1">
          <mxGeometry x="640" y="260" width="60" height="30" as="geometry" />
        </mxCell>
        <mxCell id="F5Thm_x5qzxDe0iKAtx1-11" value="&lt;u&gt;id&lt;/u&gt;" style="rounded=0;whiteSpace=wrap;html=1;" vertex="1" parent="1">
          <mxGeometry x="640" y="310" width="120" height="60" as="geometry" />
        </mxCell>
        <mxCell id="F5Thm_x5qzxDe0iKAtx1-12" value="address" style="rounded=0;whiteSpace=wrap;html=1;" vertex="1" parent="1">
          <mxGeometry x="760" y="310" width="120" height="60" as="geometry" />
        </mxCell>
        <mxCell id="F5Thm_x5qzxDe0iKAtx1-16" value="city" style="rounded=0;whiteSpace=wrap;html=1;" vertex="1" parent="1">
          <mxGeometry x="880" y="310" width="120" height="60" as="geometry" />
        </mxCell>
        <mxCell id="F5Thm_x5qzxDe0iKAtx1-17" value="state" style="rounded=0;whiteSpace=wrap;html=1;" vertex="1" parent="1">
          <mxGeometry x="1000" y="310" width="120" height="60" as="geometry" />
        </mxCell>
        <mxCell id="F5Thm_x5qzxDe0iKAtx1-18" value="code" style="rounded=0;whiteSpace=wrap;html=1;" vertex="1" parent="1">
          <mxGeometry x="1120" y="310" width="120" height="60" as="geometry" />
        </mxCell>
        <mxCell id="F5Thm_x5qzxDe0iKAtx1-21" style="edgeStyle=orthogonalEdgeStyle;rounded=0;orthogonalLoop=1;jettySize=auto;html=1;entryX=0.408;entryY=1.067;entryDx=0;entryDy=0;entryPerimeter=0;" edge="1" parent="1" source="F5Thm_x5qzxDe0iKAtx1-19" target="F5Thm_x5qzxDe0iKAtx1-5">
          <mxGeometry relative="1" as="geometry">
            <mxPoint x="-40" y="480" as="targetPoint" />
            <Array as="points">
              <mxPoint x="-270" y="480" />
              <mxPoint x="-41" y="480" />
            </Array>
          </mxGeometry>
        </mxCell>
        <mxCell id="F5Thm_x5qzxDe0iKAtx1-19" value="EmployeeID" style="rounded=0;whiteSpace=wrap;html=1;" vertex="1" parent="1">
          <mxGeometry x="-330" y="320" width="120" height="60" as="geometry" />
        </mxCell>
        <mxCell id="F5Thm_x5qzxDe0iKAtx1-20" value="" style="endArrow=none;dashed=1;html=1;dashPattern=1 3;strokeWidth=2;rounded=0;" edge="1" parent="1">
          <mxGeometry width="50" height="50" relative="1" as="geometry">
            <mxPoint x="-305" y="360" as="sourcePoint" />
            <mxPoint x="-235" y="360" as="targetPoint" />
          </mxGeometry>
        </mxCell>
        <mxCell id="F5Thm_x5qzxDe0iKAtx1-24" style="edgeStyle=orthogonalEdgeStyle;rounded=0;orthogonalLoop=1;jettySize=auto;html=1;entryX=0.417;entryY=1.017;entryDx=0;entryDy=0;entryPerimeter=0;" edge="1" parent="1" source="F5Thm_x5qzxDe0iKAtx1-22" target="F5Thm_x5qzxDe0iKAtx1-2">
          <mxGeometry relative="1" as="geometry">
            <mxPoint x="-520" y="440" as="targetPoint" />
            <Array as="points">
              <mxPoint x="210" y="410" />
              <mxPoint x="201" y="410" />
              <mxPoint x="201" y="440" />
              <mxPoint x="-520" y="440" />
            </Array>
          </mxGeometry>
        </mxCell>
        <mxCell id="F5Thm_x5qzxDe0iKAtx1-22" value="Sales-Office Number" style="rounded=0;whiteSpace=wrap;html=1;" vertex="1" parent="1">
          <mxGeometry x="150" y="320" width="120" height="60" as="geometry" />
        </mxCell>
        <mxCell id="F5Thm_x5qzxDe0iKAtx1-23" value="" style="endArrow=none;dashed=1;html=1;dashPattern=1 3;strokeWidth=2;rounded=0;" edge="1" parent="1">
          <mxGeometry width="50" height="50" relative="1" as="geometry">
            <mxPoint x="170" y="369" as="sourcePoint" />
            <mxPoint x="250" y="369" as="targetPoint" />
          </mxGeometry>
        </mxCell>
        <mxCell id="F5Thm_x5qzxDe0iKAtx1-27" style="edgeStyle=orthogonalEdgeStyle;rounded=0;orthogonalLoop=1;jettySize=auto;html=1;entryX=0.75;entryY=1;entryDx=0;entryDy=0;" edge="1" parent="1" source="F5Thm_x5qzxDe0iKAtx1-25" target="F5Thm_x5qzxDe0iKAtx1-2">
          <mxGeometry relative="1" as="geometry">
            <mxPoint x="-490" y="560" as="targetPoint" />
            <Array as="points">
              <mxPoint x="1300" y="470" />
              <mxPoint x="1281" y="470" />
              <mxPoint x="1281" y="560" />
              <mxPoint x="-480" y="560" />
            </Array>
          </mxGeometry>
        </mxCell>
        <mxCell id="F5Thm_x5qzxDe0iKAtx1-25" value="Sales-Office Number" style="rounded=0;whiteSpace=wrap;html=1;" vertex="1" parent="1">
          <mxGeometry x="1240" y="310" width="120" height="60" as="geometry" />
        </mxCell>
        <mxCell id="F5Thm_x5qzxDe0iKAtx1-26" value="" style="endArrow=none;dashed=1;html=1;dashPattern=1 3;strokeWidth=2;rounded=0;" edge="1" parent="1">
          <mxGeometry width="50" height="50" relative="1" as="geometry">
            <mxPoint x="1260" y="359" as="sourcePoint" />
            <mxPoint x="1340" y="359" as="targetPoint" />
          </mxGeometry>
        </mxCell>
        <mxCell id="F5Thm_x5qzxDe0iKAtx1-28" value="&lt;font style=&quot;font-size: 18px;&quot;&gt;property_owner&lt;/font&gt;" style="text;html=1;align=center;verticalAlign=middle;whiteSpace=wrap;rounded=0;" vertex="1" parent="1">
          <mxGeometry x="-455" y="610" width="60" height="30" as="geometry" />
        </mxCell>
        <mxCell id="F5Thm_x5qzxDe0iKAtx1-34" style="edgeStyle=orthogonalEdgeStyle;rounded=0;orthogonalLoop=1;jettySize=auto;html=1;entryX=0.692;entryY=0.983;entryDx=0;entryDy=0;entryPerimeter=0;" edge="1" parent="1" source="F5Thm_x5qzxDe0iKAtx1-29" target="F5Thm_x5qzxDe0iKAtx1-11">
          <mxGeometry relative="1" as="geometry">
            <mxPoint x="720" y="800" as="targetPoint" />
            <Array as="points">
              <mxPoint x="-430" y="800" />
              <mxPoint x="723" y="800" />
            </Array>
          </mxGeometry>
        </mxCell>
        <mxCell id="F5Thm_x5qzxDe0iKAtx1-29" value="propertyID" style="rounded=0;whiteSpace=wrap;html=1;" vertex="1" parent="1">
          <mxGeometry x="-490" y="650" width="120" height="60" as="geometry" />
        </mxCell>
        <mxCell id="F5Thm_x5qzxDe0iKAtx1-35" style="edgeStyle=orthogonalEdgeStyle;rounded=0;orthogonalLoop=1;jettySize=auto;html=1;exitX=0.5;exitY=0;exitDx=0;exitDy=0;entryX=0.5;entryY=1;entryDx=0;entryDy=0;" edge="1" parent="1" source="F5Thm_x5qzxDe0iKAtx1-30" target="F5Thm_x5qzxDe0iKAtx1-8">
          <mxGeometry relative="1" as="geometry">
            <mxPoint x="410" y="520" as="targetPoint" />
            <Array as="points">
              <mxPoint x="-310" y="586" />
              <mxPoint x="-319" y="586" />
              <mxPoint x="-319" y="520" />
              <mxPoint x="410" y="520" />
            </Array>
          </mxGeometry>
        </mxCell>
        <mxCell id="F5Thm_x5qzxDe0iKAtx1-30" value="OwnerID" style="rounded=0;whiteSpace=wrap;html=1;" vertex="1" parent="1">
          <mxGeometry x="-370" y="650" width="120" height="60" as="geometry" />
        </mxCell>
        <mxCell id="F5Thm_x5qzxDe0iKAtx1-31" value="percent" style="rounded=0;whiteSpace=wrap;html=1;" vertex="1" parent="1">
          <mxGeometry x="-250" y="650" width="120" height="60" as="geometry" />
        </mxCell>
        <mxCell id="F5Thm_x5qzxDe0iKAtx1-32" value="" style="endArrow=none;dashed=1;html=1;dashPattern=1 3;strokeWidth=2;rounded=0;" edge="1" parent="1">
          <mxGeometry width="50" height="50" relative="1" as="geometry">
            <mxPoint x="-470" y="690" as="sourcePoint" />
            <mxPoint x="-390" y="690" as="targetPoint" />
          </mxGeometry>
        </mxCell>
        <mxCell id="F5Thm_x5qzxDe0iKAtx1-33" value="" style="endArrow=none;dashed=1;html=1;dashPattern=1 3;strokeWidth=2;rounded=0;" edge="1" parent="1">
          <mxGeometry width="50" height="50" relative="1" as="geometry">
            <mxPoint x="-350" y="690" as="sourcePoint" />
            <mxPoint x="-270" y="690" as="targetPoint" />
          </mxGeometry>
        </mxCell>
        <mxCell id="F5Thm_x5qzxDe0iKAtx1-36" value="" style="endArrow=none;html=1;rounded=0;" edge="1" parent="1">
          <mxGeometry width="50" height="50" relative="1" as="geometry">
            <mxPoint x="-460" y="700" as="sourcePoint" />
            <mxPoint x="-280" y="700" as="targetPoint" />
          </mxGeometry>
        </mxCell>
      </root>
    </mxGraphModel>
  </diagram>
</mxfile>
